<svg width="160" height="154" viewBox="0 0 160 154" fill="none" xmlns="http://www.w3.org/2000/svg">
<path d="M89.484 0.0101785C90.3224 -0.0576412 91.2234 0.211278 92.1452 0.882249L92.3297 1.0219L92.403 1.07951L92.4508 1.15862L129.862 63.7416L129.891 63.7905L129.909 63.8451C130.487 65.6371 129.669 67.6654 128.261 68.684C127.543 69.2039 126.648 69.477 125.689 69.3061C125.23 69.2241 124.771 69.042 124.322 68.7543C124.698 69.5788 125.263 70.4224 126.019 71.0854C127.292 72.2008 129.131 72.8288 131.642 71.9408C132.724 71.4085 134.183 70.256 135.027 68.5385C135.864 66.8347 136.122 64.5299 134.726 61.6225L134.382 60.9057H156.462L156.479 60.9067C157.294 60.9637 158.025 61.4402 158.571 62.0785C159.121 62.7215 159.523 63.5713 159.673 64.475C159.824 65.3818 159.725 66.3648 159.241 67.2524C158.754 68.1451 157.9 68.8998 156.621 69.3832L156.536 69.4155H149.094L135.28 139.552L135.277 139.565C134.727 142.036 133.092 145.563 130.265 148.445C127.516 151.247 123.626 153.452 118.509 153.461L118.01 153.455H38.8922L38.8532 153.45C35.3108 152.893 27.585 149.566 24.7165 140.682L24.692 140.608V140.529C24.6919 140.526 24.6916 140.51 24.6881 140.475C24.6844 140.437 24.6781 140.387 24.6696 140.324C24.6526 140.197 24.6269 140.027 24.5924 139.814C24.5234 139.388 24.4211 138.802 24.2887 138.071C24.024 136.608 23.6402 134.572 23.1647 132.098C22.2138 127.15 20.8975 120.45 19.4342 113.074C16.5412 98.4899 13.0758 81.261 10.735 69.684H3.0729L2.99966 69.6606C-0.896928 68.4366 -1.09017 62.7105 2.96646 61.1196L3.05435 61.0844H31.4293L67.2204 1.33733L67.235 1.31291L67.2526 1.28948C68.3213 -0.101684 70.2102 -0.289219 71.6422 0.468186C73.1176 1.24869 74.1113 3.00452 73.5709 5.45647L73.5534 5.53557L73.5124 5.60491L36.4186 67.9946C36.2214 68.4475 35.7786 68.809 35.2946 69.0463C34.7674 69.3047 34.1076 69.4634 33.4206 69.4379C32.8238 69.4157 32.1996 69.2526 31.6247 68.8901C32.3294 70.2278 33.4223 71.3352 34.6842 71.9408C35.698 72.4273 36.8095 72.5867 37.9176 72.3002C39.02 72.015 40.1657 71.2757 41.2321 69.8862L46.1823 61.3344L46.3268 61.0844H119.086L86.1579 5.60491L86.1325 5.56096L86.1159 5.51311C85.8796 4.83266 85.9084 4.02126 86.1139 3.2592C86.3209 2.49194 86.7196 1.72565 87.2819 1.12834C87.8462 0.529066 88.5934 0.0823722 89.484 0.0101785ZM70.1393 91.1303C69.9854 89.2908 68.3734 87.9649 66.5387 88.1684C64.704 88.372 63.341 90.0281 63.4948 91.8676L66.8288 131.718C66.9827 133.558 68.5955 134.884 70.4303 134.68C72.2648 134.476 73.6271 132.82 73.4733 130.981L70.1393 91.1303ZM93.4127 88.1684C91.578 87.9647 89.9651 89.2907 89.8112 91.1303L86.4772 130.981C86.3234 132.82 87.6864 134.476 89.5211 134.68C91.3559 134.884 92.9678 133.558 93.1217 131.718L96.4557 91.8676C96.6095 90.0282 95.2473 88.3722 93.4127 88.1684ZM43.3229 91.0678C43.0069 89.2404 41.2849 88.0948 39.4772 88.5092C37.6695 88.9237 36.4604 90.7412 36.776 92.5688L43.5504 131.78C43.8663 133.607 45.5884 134.753 47.3961 134.338C49.2037 133.924 50.4131 132.106 50.0973 130.279L43.3229 91.0678ZM120.202 88.5092C118.394 88.0948 116.672 89.2411 116.356 91.0688L109.582 130.279C109.266 132.106 110.476 133.924 112.284 134.338C114.092 134.752 115.813 133.607 116.129 131.78L122.903 92.5688C123.219 90.7413 122.01 88.9236 120.202 88.5092Z" fill="#F97101"/>
</svg>
